<?xml version="1.0" standalone="no"?>
<!DOCTYPE svg PUBLIC "-//W3C//DTD SVG 20010904//EN"
 "http://www.w3.org/TR/2001/REC-SVG-20010904/DTD/svg10.dtd">
<svg version="1.0" xmlns="http://www.w3.org/2000/svg"
 width="256.000000pt" height="256.000000pt" viewBox="0 0 256.000000 256.000000"
 preserveAspectRatio="xMidYMid meet">
<metadata>
Created by potrace 1.11, written by Peter Selinger 2001-2013
</metadata>
<g transform="translate(0.000000,256.000000) scale(0.100000,-0.100000)"
fill="#000000" stroke="none">
<path d="M0 1280 l0 -1280 1280 0 1280 0 0 1280 0 1280 -1280 0 -1280 0 0
-1280z m2450 1040 c11 -11 20 -30 20 -42 0 -76 -131 -219 -258 -281 -85 -41
-283 -49 -379 -14 -24 8 -43 13 -43 11 0 -2 15 -26 33 -52 122 -175 152 -397
92 -686 -47 -224 -159 -451 -328 -661 -72 -90 -241 -249 -317 -300 -120 -78
-170 -101 -330 -149 -86 -25 -268 -27 -375 -3 -132 30 -264 135 -339 270 -94
168 -110 427 -46 734 28 131 103 348 130 373 3 3 18 30 34 60 26 51 113 189
126 200 3 3 18 21 34 40 43 54 106 118 184 190 93 86 91 84 180 139 144 89
281 131 432 131 88 0 123 -5 325 -40 308 -53 534 -34 680 59 74 48 113 53 145
21z"/>
<path d="M1085 2068 c-107 -35 -176 -91 -275 -223 -86 -115 -145 -233 -136
-272 4 -18 3 -23 -2 -14 -13 18 -16 10 -45 -99 -74 -278 -74 -679 -1 -871 29
-78 84 -172 116 -200 52 -45 108 -61 198 -57 110 6 163 32 252 127 99 104 166
219 233 397 56 150 91 418 82 634 -16 388 -132 592 -335 589 -31 0 -70 -5 -87
-11z m372 -460 c-3 -8 -6 -5 -6 6 -1 11 2 17 5 13 3 -3 4 -12 1 -19z"/>
</g>
</svg>
